<svg version="1.1" id="Layer_1" xmlns="http://www.w3.org/2000/svg" xmlns:xlink="http://www.w3.org/1999/xlink" x="0px" y="0px"
	 width="100%" viewBox="0 0 600 600" enable-background="new 0 0 600 600" xml:space="preserve">
<path fill="#FFFFFF" opacity="1.000000" stroke="none" 
	d="
M1.000000,215.000000 
	C1.000000,143.333359 1.000000,72.166710 1.000000,1.000048 
	C200.999924,1.000032 400.999847,1.000032 600.999817,1.000016 
	C600.999878,200.999863 600.999878,400.999725 600.999939,600.999634 
	C401.000214,600.999756 201.000397,600.999756 1.000300,600.999878 
	C1.000000,472.500000 1.000000,344.000000 1.000000,215.000000 
M438.305725,205.154816 
	C453.756805,214.712921 469.207916,224.271027 484.690247,233.848465 
	C484.690247,166.288330 484.690247,98.859337 484.690247,31.290306 
	C361.727203,31.290306 239.010132,31.290306 116.404633,31.290306 
	C116.404633,99.083542 116.404633,166.583466 116.404633,234.615448 
	C118.299377,233.366165 119.642036,232.424805 121.037460,231.569504 
	C135.515961,222.695175 149.645782,213.175522 164.556137,205.096954 
	C205.398972,182.967850 248.858597,169.457947 295.610626,168.243988 
	C346.389343,166.925507 393.371002,180.703629 438.305725,205.154816 
M127.104019,380.410187 
	C123.678024,378.174103 120.252037,375.938019 116.332718,373.379974 
	C116.332718,439.637695 116.332718,505.131683 116.332718,570.531250 
	C239.359467,570.531250 362.049225,570.531250 484.548279,570.531250 
	C484.548279,504.768890 484.548279,439.414368 484.548279,373.423553 
	C482.627319,374.670044 481.289948,375.601044 479.894012,376.433929 
	C463.030914,386.495880 446.681274,397.577667 429.193970,406.404999 
	C371.436127,435.560364 310.689545,445.445007 246.819305,432.025543 
	C203.677383,422.961243 164.533096,404.577393 127.104019,380.410187 
M287.415710,361.717590 
	C289.522400,360.511566 291.629059,359.305542 293.127136,358.447968 
	C299.948395,365.425110 305.947571,372.378906 312.827881,378.310730 
	C317.394104,382.247559 323.112610,384.927429 328.519806,387.782745 
	C332.447479,389.856781 335.409393,388.651855 337.004120,384.172577 
	C338.163727,380.915436 339.850159,377.845825 341.812531,373.582947 
	C363.462433,381.907959 384.894470,390.149200 406.326508,398.390442 
	C406.648163,398.077545 406.969818,397.764618 407.291473,397.451721 
	C399.156219,381.862335 393.241028,365.828857 396.434265,347.327789 
	C406.499329,347.327789 416.362671,347.902496 426.130371,347.181671 
	C438.232422,346.288635 442.535828,341.213898 442.693909,329.079712 
	C442.760986,323.931946 442.113495,318.775177 441.798096,313.622009 
	C441.549713,309.563843 442.930817,306.686768 446.946991,304.923370 
	C454.087311,301.788269 454.097229,301.567444 451.735535,294.028076 
	C447.956085,281.962677 443.336578,270.099976 440.486115,257.823303 
	C438.230499,248.108688 433.571320,240.957123 425.857513,234.925919 
	C402.232758,216.454376 375.058350,206.672089 345.883545,202.039795 
	C299.856873,194.731827 253.834106,196.142242 208.100983,204.394653 
	C192.000000,207.300034 176.287216,212.356766 160.199982,216.481750 
	C161.384781,221.719208 163.758331,226.253204 162.883331,230.035751 
	C162.025177,233.745499 157.862625,236.690857 154.823166,240.367416 
	C157.402237,243.789932 160.365814,247.722702 163.672623,252.110977 
	C159.490280,254.659912 155.588074,257.038116 151.293839,259.655243 
	C153.291870,263.136871 154.920212,266.410980 156.958832,269.405731 
	C159.062042,272.495331 158.353989,274.458374 155.340912,276.283661 
	C152.700287,277.883331 150.250534,279.798096 147.644547,281.624084 
	C151.973953,287.258453 155.899765,292.367584 160.091858,297.823273 
	C156.148071,300.936615 152.412491,303.885559 148.199524,307.211395 
	C152.271530,310.765900 156.044754,314.059601 159.738693,317.284088 
	C156.976578,321.311981 154.570023,324.821381 152.204865,328.270416 
	C156.878357,332.197174 161.043198,335.696564 165.163864,339.158813 
	C163.410339,343.092896 161.866547,346.556458 160.110001,350.497314 
	C164.659302,353.393707 168.880157,356.333710 173.349350,358.828918 
	C175.916428,360.262146 176.949371,361.644806 176.091125,364.688080 
	C174.974289,368.648285 174.422348,372.767822 173.551376,377.205658 
	C179.430801,377.861816 184.861130,378.679962 190.320602,378.999084 
	C193.696060,379.196350 196.017654,380.443970 197.495865,383.413147 
	C200.311691,389.069031 203.375626,394.617798 205.865494,400.413361 
	C207.307770,403.770477 208.961670,404.669250 212.302979,403.226501 
	C221.606934,399.209015 231.478928,396.218933 240.206406,391.217407 
	C256.079163,382.121124 271.286804,371.864288 287.415710,361.717590 
z"/>
<path fill="#ED1D25" opacity="1.000000" stroke="none" 
	d="
M437.973816,204.992401 
	C393.371002,180.703629 346.389343,166.925507 295.610626,168.243988 
	C248.858597,169.457947 205.398972,182.967850 164.556137,205.096954 
	C149.645782,213.175522 135.515961,222.695175 121.037460,231.569504 
	C119.642036,232.424805 118.299377,233.366165 116.404633,234.615448 
	C116.404633,166.583466 116.404633,99.083542 116.404633,31.290306 
	C239.010132,31.290306 361.727203,31.290306 484.690247,31.290306 
	C484.690247,98.859337 484.690247,166.288330 484.690247,233.848465 
	C469.207916,224.271027 453.756805,214.712921 437.973816,204.992401 
M211.697968,108.529442 
	C215.848206,108.333282 220.074249,108.567543 224.133179,107.852791 
	C233.020401,106.287827 239.946182,101.772568 243.381302,93.014931 
	C249.766891,76.735252 237.985977,59.725861 219.783005,59.395035 
	C202.957748,59.089249 186.122528,59.320396 169.291763,59.355431 
	C168.358536,59.357372 167.426071,59.728352 165.951202,60.043308 
	C165.951202,90.256691 165.951202,120.338196 165.951202,150.857239 
	C172.868744,149.296082 179.606567,147.542816 186.440323,146.330414 
	C189.909607,145.714935 191.192825,144.461975 190.990753,140.833374 
	C190.662552,134.939911 190.902298,129.014832 190.902298,121.867958 
	C203.306046,131.627563 214.728912,140.615402 226.484467,149.865005 
	C230.332779,143.180313 233.873138,137.030548 237.500397,130.729828 
	C235.452332,129.077301 233.767029,127.740662 232.106659,126.373756 
	C225.073624,120.583748 218.048004,114.784744 210.965317,109.026199 
	C210.965317,109.026199 210.908386,109.059258 211.697968,108.529442 
M413.674774,62.659538 
	C409.161621,61.701920 404.672791,60.077946 400.130768,59.912357 
	C386.821045,59.427120 373.490265,59.509361 360.167480,59.396946 
	C355.220551,59.355202 350.272949,59.390194 345.390137,59.390194 
	C345.390137,90.236130 345.390137,120.291641 345.390137,150.234299 
	C346.042450,150.460800 346.347229,150.658737 346.652466,150.659439 
	C363.473206,150.698242 380.294006,150.731262 397.114777,150.741425 
	C413.281433,150.751190 425.652710,142.714600 431.825989,127.731415 
	C437.736237,113.386650 437.564545,98.820808 432.181580,84.347809 
	C428.771088,75.178085 423.225250,67.664406 413.674774,62.659538 
M320.631256,148.117599 
	C322.076904,142.574417 323.522522,137.031235 325.116821,130.918091 
	C312.300598,130.918091 300.200104,130.918091 287.994354,130.918091 
	C287.994354,125.432716 287.994354,120.385910 287.994354,114.895782 
	C298.092102,114.895782 307.849091,114.895782 317.791870,114.895782 
	C317.791870,108.071617 317.791870,101.699432 317.791870,94.834366 
	C307.717010,94.834366 297.970276,94.834366 288.146790,94.834366 
	C288.146790,89.586700 288.146790,84.838463 288.146790,79.644669 
	C297.716156,79.644669 307.009552,79.730835 316.298157,79.558426 
	C317.816742,79.530235 320.312836,78.693977 320.655243,77.664909 
	C322.528076,72.036354 323.869629,66.231026 325.526917,59.984547 
	C304.271332,59.984547 283.698151,59.984547 263.049927,59.984547 
	C263.049927,90.183723 263.049927,120.115128 263.049927,150.044647 
	C263.753448,150.242065 264.223816,150.488708 264.694641,150.489624 
	C282.188690,150.523270 299.682953,150.563065 317.176544,150.477203 
	C318.236328,150.472000 319.291046,149.443222 320.631256,148.117599 
z"/>
<path fill="#02AFEF" opacity="1.000000" stroke="none" 
	d="
M127.404083,380.614044 
	C164.533096,404.577393 203.677383,422.961243 246.819305,432.025543 
	C310.689545,445.445007 371.436127,435.560364 429.193970,406.404999 
	C446.681274,397.577667 463.030914,386.495880 479.894012,376.433929 
	C481.289948,375.601044 482.627319,374.670044 484.548279,373.423553 
	C484.548279,439.414368 484.548279,504.768890 484.548279,570.531250 
	C362.049225,570.531250 239.359467,570.531250 116.332718,570.531250 
	C116.332718,505.131683 116.332718,439.637695 116.332718,373.379974 
	C120.252037,375.938019 123.678024,378.174103 127.404083,380.614044 
M213.008362,529.497070 
	C213.008362,534.803528 213.008362,540.109985 213.008362,545.936890 
	C221.886108,543.870117 230.251190,541.922729 238.911621,539.906555 
	C238.911621,531.611511 238.809387,523.633179 239.001724,515.661926 
	C239.038223,514.149536 239.874161,511.781311 240.972687,511.323639 
	C245.360641,509.495575 249.997787,508.265564 255.267181,506.582916 
	C255.267181,519.866394 255.267181,532.415833 255.267181,545.569824 
	C263.961334,543.527588 271.974335,541.645325 279.972168,539.766724 
	C279.972168,510.986115 279.972168,482.730988 279.972168,453.976471 
	C272.575806,455.950134 265.573120,457.981934 258.481659,459.632172 
	C255.569321,460.309845 254.795914,461.714050 254.919785,464.479736 
	C255.113327,468.801117 255.086411,473.142426 254.901672,477.464508 
	C254.846680,478.751099 254.290695,480.715027 253.382202,481.148407 
	C248.841705,483.314301 244.107635,485.074402 238.637878,487.304962 
	C238.637878,475.838837 238.637878,465.422638 238.637878,454.287933 
	C231.072250,456.090546 224.200027,457.922180 217.238647,459.305115 
	C213.729233,460.002289 212.892776,461.607910 212.920990,465.047150 
	C213.094589,486.196289 213.008224,507.347504 213.008362,529.497070 
M183.887207,491.473846 
	C185.510361,491.108856 187.145386,490.789429 188.754379,490.370148 
	C193.059219,489.248383 199.014130,489.374359 201.187683,486.576385 
	C203.398071,483.731049 202.180206,477.965332 201.851654,473.523743 
	C201.708145,471.584076 200.518066,469.072754 198.980652,468.000519 
	C193.117630,463.911407 186.973190,460.211823 180.810532,456.575745 
	C179.185150,455.616730 177.130127,454.978882 175.249985,454.920898 
	C153.700226,454.256775 153.699127,454.294312 135.384659,465.847626 
	C134.258270,466.558167 132.828247,467.034241 132.069397,468.025208 
	C130.800247,469.682465 129.095169,471.656464 129.071732,473.516052 
	C128.847275,491.330475 129.007370,509.149384 128.866730,526.965515 
	C128.843857,529.862854 129.848206,531.488159 132.242554,532.927673 
	C138.233047,536.529114 143.954254,540.592896 150.040649,544.013672 
	C152.643768,545.476746 155.837219,546.116516 158.847458,546.589172 
	C172.450821,548.725403 184.353027,544.962708 194.702698,535.929443 
	C196.441406,534.411926 198.644882,533.438782 200.499908,532.037170 
	C201.355682,531.390564 202.451035,530.334045 202.477707,529.434937 
	C202.653809,523.498901 202.568710,517.555237 202.568710,511.899994 
	C201.603928,511.503967 201.305817,511.277100 201.005295,511.273865 
	C196.510986,511.225067 192.009430,511.352142 187.523651,511.140198 
	C182.591385,510.907196 178.584320,510.993469 175.947540,516.730835 
	C173.491486,522.074890 166.855026,523.561035 161.092285,521.695679 
	C155.378860,519.846252 153.154205,516.438049 153.146957,509.491180 
	C153.140015,502.830536 153.122803,496.169830 153.152603,489.509308 
	C153.183578,482.581573 156.683838,478.752686 163.588196,478.013611 
	C172.460098,477.063904 176.946381,480.998932 179.616684,492.163025 
	C180.752670,492.014221 181.900848,491.863831 183.887207,491.473846 
M391.453552,545.104431 
	C393.270996,538.924927 395.088440,532.745422 397.090332,525.938843 
	C384.002167,525.938843 371.584839,525.938843 359.149261,525.938843 
	C359.149261,520.416443 359.149261,515.395508 359.149261,509.847412 
	C369.466339,509.847412 379.352295,509.847412 389.202576,509.847412 
	C389.202576,503.061432 389.202576,496.826202 389.202576,490.118958 
	C378.899292,490.118958 368.976318,490.118958 358.806305,490.118958 
	C358.806305,484.912292 358.806305,480.191528 358.806305,474.917633 
	C360.714508,474.917633 362.339508,474.917664 363.964508,474.917633 
	C371.622467,474.917419 379.282654,475.011475 386.936249,474.828827 
	C388.290863,474.796509 390.446014,473.917969 390.820831,472.907135 
	C392.945129,467.178009 394.640198,461.289734 396.582733,455.134430 
	C375.253723,455.134430 354.544525,455.134430 333.656128,455.134430 
	C333.656128,485.883636 333.656128,516.215454 333.656128,546.818176 
	C352.360626,546.818176 370.660706,546.828918 388.960571,546.777771 
	C389.673279,546.775757 390.384308,546.180176 391.453552,545.104431 
M427.801147,541.211792 
	C432.814819,540.841431 434.169556,538.117371 433.892822,533.268372 
	C433.460785,525.696960 433.778412,518.082764 433.778412,509.951935 
	C442.712463,509.951935 450.945953,509.951935 459.235260,509.951935 
	C459.235260,503.149902 459.235260,496.907776 459.235260,490.134460 
	C450.638123,490.134460 442.391663,490.134460 433.994873,490.134460 
	C433.994873,484.862885 433.994873,480.134186 433.994873,474.920776 
	C443.422699,474.920776 452.549774,474.987823 461.673767,474.851196 
	C463.103058,474.829773 465.442444,474.230927 465.789886,473.307770 
	C467.995209,467.447845 469.759064,461.421753 471.790924,455.067444 
	C450.363068,455.067444 429.656250,455.067444 408.814697,455.067444 
	C408.814697,485.715820 408.814697,515.894775 408.814697,546.666748 
	C415.260529,544.820496 421.144348,543.135254 427.801147,541.211792 
M294.259857,517.500000 
	C294.259857,526.791443 294.259857,536.082947 294.259857,545.946777 
	C301.783966,544.209229 308.683624,542.446106 315.660767,541.078369 
	C319.002106,540.423401 320.237549,539.163391 320.207428,535.536743 
	C319.995758,510.051514 320.049744,484.564056 320.003479,459.077362 
	C320.000793,457.611328 319.863892,456.145599 319.769531,454.287018 
	C312.470581,456.033234 305.561768,457.851288 298.574432,459.287231 
	C295.147980,459.991394 294.129639,461.525848 294.169983,465.027466 
	C294.367584,482.183044 294.259857,499.342133 294.259857,517.500000 
z"/>
<path fill="#0E0E0E" opacity="1.000000" stroke="none" 
	d="
M287.093842,361.904663 
	C271.286804,371.864288 256.079163,382.121124 240.206406,391.217407 
	C231.478928,396.218933 221.606934,399.209015 212.302979,403.226501 
	C208.961670,404.669250 207.307770,403.770477 205.865494,400.413361 
	C203.375626,394.617798 200.311691,389.069031 197.495865,383.413147 
	C196.017654,380.443970 193.696060,379.196350 190.320602,378.999084 
	C184.861130,378.679962 179.430801,377.861816 173.551376,377.205658 
	C174.422348,372.767822 174.974289,368.648285 176.091125,364.688080 
	C176.949371,361.644806 175.916428,360.262146 173.349350,358.828918 
	C168.880157,356.333710 164.659302,353.393707 160.110001,350.497314 
	C161.866547,346.556458 163.410339,343.092896 165.163864,339.158813 
	C161.043198,335.696564 156.878357,332.197174 152.204865,328.270416 
	C154.570023,324.821381 156.976578,321.311981 159.738693,317.284088 
	C156.044754,314.059601 152.271530,310.765900 148.199524,307.211395 
	C152.412491,303.885559 156.148071,300.936615 160.091858,297.823273 
	C155.899765,292.367584 151.973953,287.258453 147.644547,281.624084 
	C150.250534,279.798096 152.700287,277.883331 155.340912,276.283661 
	C158.353989,274.458374 159.062042,272.495331 156.958832,269.405731 
	C154.920212,266.410980 153.291870,263.136871 151.293839,259.655243 
	C155.588074,257.038116 159.490280,254.659912 163.672623,252.110977 
	C160.365814,247.722702 157.402237,243.789932 154.823166,240.367416 
	C157.862625,236.690857 162.025177,233.745499 162.883331,230.035751 
	C163.758331,226.253204 161.384781,221.719208 160.199982,216.481750 
	C176.287216,212.356766 192.000000,207.300034 208.100983,204.394653 
	C253.834106,196.142242 299.856873,194.731827 345.883545,202.039795 
	C375.058350,206.672089 402.232758,216.454376 425.857513,234.925919 
	C433.571320,240.957123 438.230499,248.108688 440.486115,257.823303 
	C443.336578,270.099976 447.956085,281.962677 451.735535,294.028076 
	C454.097229,301.567444 454.087311,301.788269 446.946991,304.923370 
	C442.930817,306.686768 441.549713,309.563843 441.798096,313.622009 
	C442.113495,318.775177 442.760986,323.931946 442.693909,329.079712 
	C442.535828,341.213898 438.232422,346.288635 426.130371,347.181671 
	C416.362671,347.902496 406.499329,347.327789 396.434265,347.327789 
	C393.241028,365.828857 399.156219,381.862335 407.291473,397.451721 
	C406.969818,397.764618 406.648163,398.077545 406.326508,398.390442 
	C384.894470,390.149200 363.462433,381.907959 341.812531,373.582947 
	C339.850159,377.845825 338.163727,380.915436 337.004120,384.172577 
	C335.409393,388.651855 332.447479,389.856781 328.519806,387.782745 
	C323.112610,384.927429 317.394104,382.247559 312.827881,378.310730 
	C305.947571,372.378906 299.948395,365.425110 293.127136,358.447968 
	C291.629059,359.305542 289.522400,360.511566 287.093842,361.904663 
M347.202637,315.428802 
	C347.474396,315.013611 347.746155,314.598389 348.770996,314.027832 
	C349.871704,312.478729 350.972443,310.929626 352.073151,309.380524 
	C350.527283,308.416382 349.053223,306.799194 347.421021,306.619659 
	C343.640015,306.203674 339.735199,306.128601 335.976044,306.630432 
	C334.103638,306.880371 332.441223,308.703491 330.683838,309.814972 
	C332.118378,311.269623 333.552917,312.724274 335.201691,314.615295 
	C335.453125,315.027832 335.704590,315.440399 335.347412,316.199249 
	C334.839722,317.892273 333.584320,319.850159 334.060577,321.194641 
	C334.442566,322.273041 336.872253,322.909668 338.489471,323.193237 
	C340.398285,323.527985 342.480835,323.590576 344.357574,323.177856 
	C346.068695,322.801483 348.482727,321.969086 348.964935,320.714325 
	C349.419830,319.530731 347.760498,317.534668 347.202637,315.428802 
M348.569336,222.704941 
	C353.359955,219.526337 358.150543,216.347733 363.233978,212.974838 
	C335.739166,195.732071 207.061981,201.723129 168.415100,221.673416 
	C169.229691,225.278702 171.308990,229.266678 170.535355,232.590622 
	C169.826035,235.638184 166.038193,237.969193 163.407349,240.833023 
	C166.617264,245.488358 169.790894,250.091095 173.284805,255.158325 
	C168.471573,257.173950 164.262772,258.936462 159.514359,260.924927 
	C163.001907,265.711914 166.166885,270.056122 169.360275,274.439362 
	C164.295319,277.157837 159.604813,279.675293 153.899719,282.737305 
	C160.392197,288.613586 165.832397,293.537476 171.740158,298.884521 
	C165.857361,301.918427 161.321426,304.257721 155.397095,307.313049 
	C160.903091,311.184479 165.513733,314.426331 170.299072,317.791046 
	C166.565155,320.586761 162.818909,323.391724 157.827225,327.129211 
	C165.295135,331.134003 171.435669,334.427002 179.717621,338.868347 
	C174.857391,342.196228 170.611954,345.103180 166.366531,348.010101 
	C166.721191,348.706909 167.075851,349.403687 167.430527,350.100494 
	C170.604965,351.365753 173.725952,352.792236 176.963943,353.865814 
	C186.393982,356.992401 186.411926,356.936859 182.288940,365.592926 
	C182.146042,365.892914 182.023376,366.203125 181.902328,366.512909 
	C180.140076,371.022522 181.123154,373.290710 185.854446,374.034882 
	C189.085648,374.543121 192.508438,374.476410 195.760101,374.035889 
	C199.210602,373.568420 201.200348,374.312469 202.609863,377.756439 
	C204.812775,383.139038 207.709930,388.233215 210.084656,393.551514 
	C211.430573,396.565796 212.994446,397.382233 216.214890,396.001343 
	C240.461716,385.604797 263.597900,373.212280 285.504456,358.478424 
	C290.184387,355.330811 290.944000,352.494629 288.770782,347.096375 
	C283.273834,333.442139 281.505524,319.120605 284.119843,304.459351 
	C284.752319,300.912292 285.919525,298.083344 290.577881,299.134399 
	C293.928497,299.890381 296.259033,298.017059 296.825745,294.889252 
	C297.339996,292.051117 297.271790,289.004791 296.878143,286.129974 
	C296.350983,282.280212 295.334625,278.543610 301.730255,278.566559 
	C300.813629,276.905487 300.311401,275.907013 299.730377,274.956726 
	C295.889557,268.674438 295.623993,268.382080 301.195221,263.483673 
	C315.819946,250.625061 330.704468,238.062225 345.443909,225.333389 
	C346.495544,224.425201 347.209442,223.125961 348.010071,221.996490 
	C348.010071,221.996490 348.032684,222.063736 348.569336,222.704941 
M367.075165,320.032898 
	C370.151917,331.310699 378.746094,336.657806 388.990021,339.860413 
	C401.601685,343.803253 414.634705,343.439941 427.632355,342.687622 
	C429.402618,342.585144 431.228638,341.904053 432.852661,341.124054 
	C436.787750,339.234161 438.824768,333.976440 437.974945,328.601044 
	C437.210083,323.762939 433.403198,323.537262 429.718964,323.031189 
	C427.699615,322.753845 425.700470,322.329590 423.183105,321.880798 
	C426.682495,314.495514 433.222778,320.621246 436.836365,317.636902 
	C436.836365,314.643555 436.836365,311.861816 436.836365,309.608093 
	C433.967072,306.903778 427.269318,310.982422 427.895081,303.110016 
	C430.529907,303.236176 432.825775,303.414246 435.123566,303.444458 
	C445.578247,303.581940 448.614777,301.461151 444.919922,290.527863 
	C441.420929,280.174011 438.868286,269.503723 435.681030,259.039124 
	C434.678711,255.748199 433.225739,252.526001 431.515015,249.538025 
	C429.683105,246.338409 427.168060,245.984039 424.198303,248.628662 
	C419.847412,252.503235 415.098846,255.945282 410.895325,259.964447 
	C409.142822,261.640045 408.374573,264.336060 407.123932,266.548401 
	C406.121368,268.321808 405.448669,271.100555 403.969666,271.647034 
	C396.747467,274.315613 390.511841,278.102203 385.795746,284.304565 
	C385.052032,285.282684 383.660797,285.953949 382.434265,286.350922 
	C369.404327,290.568054 362.748718,302.999573 367.075165,320.032898 
M291.150116,333.049500 
	C294.397522,346.525696 301.415771,357.957489 310.805206,367.890320 
	C314.407623,371.701233 318.668243,375.203949 323.253113,377.700928 
	C330.750854,381.784271 334.968964,379.367767 334.752533,370.827698 
	C334.517792,361.563934 334.000488,352.045410 331.637665,343.161652 
	C328.455292,331.196533 323.489258,319.694519 319.074371,308.075226 
	C317.697784,304.452209 314.975342,302.981659 310.727234,303.735626 
	C305.665588,304.633972 300.459839,304.892181 295.305695,305.033691 
	C292.154053,305.120239 290.615479,306.345459 290.644775,309.395020 
	C290.717804,317.002716 290.877655,324.609589 291.150116,333.049500 
M377.495300,382.076874 
	C382.818542,383.757477 388.141754,385.438080 394.378113,387.406952 
	C393.612335,384.315552 392.921509,382.151245 392.553528,379.933350 
	C390.956635,370.308197 389.187561,360.698303 388.065735,351.015106 
	C387.688293,347.757416 386.621216,346.036713 383.879120,344.504120 
	C379.711670,342.174805 375.254669,339.923431 371.918854,336.628387 
	C361.659088,326.494110 349.476440,325.543854 336.079926,327.938080 
	C336.033997,328.884979 335.816772,329.876038 335.966431,330.808197 
	C337.884888,342.757568 339.761108,354.715973 341.949554,366.616608 
	C342.186859,367.907074 344.126770,369.305145 345.582672,369.883362 
	C355.922852,373.990082 366.342682,377.896240 377.495300,382.076874 
M315.679840,282.587219 
	C316.429199,284.613708 317.424896,286.587280 317.874023,288.678253 
	C318.682465,292.442291 320.638489,293.560272 324.523956,293.308777 
	C334.107361,292.688446 334.119720,292.901031 336.344543,283.452576 
	C336.763702,281.672668 337.480804,279.910828 337.571716,278.115906 
	C337.799652,273.615479 340.298340,273.093323 343.972412,273.919739 
	C349.262360,275.109528 354.585266,276.152618 360.207733,277.323669 
	C361.243042,270.047913 362.193665,263.367279 363.184753,256.402344 
	C371.592133,257.466461 379.577789,258.477173 387.806793,259.518707 
	C388.713501,252.089600 389.552399,245.216125 390.456207,237.810684 
	C394.913422,238.073395 399.042847,238.316772 403.389038,238.572937 
	C396.428925,226.666748 391.940948,224.782089 381.035065,231.348312 
	C365.388947,240.768600 349.886780,250.557846 335.184998,261.362366 
	C327.718414,266.849640 322.137634,274.902985 315.679840,282.587219 
M346.227051,246.732986 
	C360.439178,235.950745 376.276733,228.149979 393.082092,221.682236 
	C382.796051,214.386856 373.894562,213.279175 364.394897,219.919724 
	C348.476379,231.047256 333.068695,242.919800 317.675140,254.776245 
	C312.479645,258.777924 307.979340,263.682159 303.174194,268.161896 
	C305.702789,272.434998 307.935577,276.208130 309.735107,279.249176 
	C321.926697,268.345367 333.782471,257.741882 346.227051,246.732986 
M343.658813,278.920837 
	C338.916107,282.262238 340.059937,287.352448 339.094727,292.354126 
	C347.665924,293.070160 355.298126,294.312103 362.485138,288.565582 
	C380.179596,274.417603 398.247681,260.737091 416.149994,246.848541 
	C417.104706,246.107880 417.916016,245.182404 419.575378,243.596039 
	C410.321716,243.016998 402.141449,242.505127 393.804291,241.983444 
	C392.767822,249.293365 391.818176,255.990906 390.847321,262.838135 
	C382.647827,261.953461 374.956085,261.123566 367.103363,260.276306 
	C365.902313,267.959473 364.782318,275.124054 363.611481,282.613831 
	C356.901062,281.357666 350.697754,280.196442 343.658813,278.920837 
M327.841797,299.585754 
	C327.563416,302.472900 328.880524,304.055786 331.771423,304.079926 
	C338.245789,304.134033 344.732910,304.299530 351.186279,303.926361 
	C352.549469,303.847534 353.790497,301.656189 355.087799,300.438202 
	C353.809204,299.203278 352.584839,296.974670 351.242828,296.901459 
	C344.622742,296.540192 337.968964,296.660400 331.333710,296.846954 
	C330.240540,296.877686 329.180359,298.082764 327.841797,299.585754 
M407.075867,235.500488 
	C410.644135,240.263702 415.704773,239.775925 420.866302,239.317413 
	C414.680542,233.237534 407.687164,228.633591 399.035706,226.576660 
	C401.558167,229.368332 404.080627,232.160004 407.075867,235.500488 
M313.579559,293.308960 
	C310.444122,291.022430 307.308685,288.735901 304.173248,286.449371 
	C303.790680,286.850708 303.408142,287.252045 303.025604,287.653381 
	C303.391632,291.381226 303.757660,295.109070 304.113892,298.737091 
	C311.421265,299.732483 313.574463,298.633972 313.579559,293.308960 
z"/>
<path fill="#FFFBFB" opacity="1.000000" stroke="none" 
	d="
M414.017517,62.821262 
	C423.225250,67.664406 428.771088,75.178085 432.181580,84.347809 
	C437.564545,98.820808 437.736237,113.386650 431.825989,127.731415 
	C425.652710,142.714600 413.281433,150.751190 397.114777,150.741425 
	C380.294006,150.731262 363.473206,150.698242 346.652466,150.659439 
	C346.347229,150.658737 346.042450,150.460800 345.390137,150.234299 
	C345.390137,120.291641 345.390137,90.236130 345.390137,59.390194 
	C350.272949,59.390194 355.220551,59.355202 360.167480,59.396946 
	C373.490265,59.509361 386.821045,59.427120 400.130768,59.912357 
	C404.672791,60.077946 409.161621,61.701920 414.017517,62.821262 
M364.909332,126.232414 
	C364.581879,128.752167 365.527496,129.807693 368.217285,129.740479 
	C374.370514,129.586716 380.530212,129.704987 386.687256,129.691193 
	C404.263550,129.651794 415.259888,116.615768 412.508911,99.092186 
	C410.916290,88.947144 405.534363,81.446541 396.957031,80.637474 
	C386.483765,79.649574 375.846252,80.402359 364.909302,80.402359 
	C364.909302,95.394386 364.909302,110.340103 364.909332,126.232414 
z"/>
<path fill="#FFFBFB" opacity="1.000000" stroke="none" 
	d="
M211.019669,108.989037 
	C218.048004,114.784744 225.073624,120.583748 232.106659,126.373756 
	C233.767029,127.740662 235.452332,129.077301 237.500397,130.729828 
	C233.873138,137.030548 230.332779,143.180313 226.484467,149.865005 
	C214.728912,140.615402 203.306046,131.627563 190.902298,121.867958 
	C190.902298,129.014832 190.662552,134.939911 190.990753,140.833374 
	C191.192825,144.461975 189.909607,145.714935 186.440323,146.330414 
	C179.606567,147.542816 172.868744,149.296082 165.951202,150.857239 
	C165.951202,120.338196 165.951202,90.256691 165.951202,60.043308 
	C167.426071,59.728352 168.358536,59.357372 169.291763,59.355431 
	C186.122528,59.320396 202.957748,59.089249 219.783005,59.395035 
	C237.985977,59.725861 249.766891,76.735252 243.381302,93.014931 
	C239.946182,101.772568 233.020401,106.287827 224.133179,107.852791 
	C220.074249,108.567543 215.848206,108.333282 211.433350,108.627106 
	C210.944244,108.644958 210.719772,108.565163 210.495300,108.485367 
	C210.670090,108.653252 210.844879,108.821136 211.019669,108.989037 
M189.719894,85.544113 
	C189.719894,88.625092 189.719894,91.706078 189.719894,95.044113 
	C198.190521,95.044113 205.967010,95.214493 213.731033,94.977158 
	C218.058136,94.844887 221.142517,91.414330 221.435364,87.264305 
	C221.741806,82.921333 218.880005,78.673241 214.436508,78.439644 
	C206.379242,78.016075 198.283737,78.319572 189.719757,78.319572 
	C189.719757,80.669289 189.719757,82.620651 189.719894,85.544113 
z"/>
<path fill="#FFFBFB" opacity="1.000000" stroke="none" 
	d="
M320.489685,148.504150 
	C319.291046,149.443222 318.236328,150.472000 317.176544,150.477203 
	C299.682953,150.563065 282.188690,150.523270 264.694641,150.489624 
	C264.223816,150.488708 263.753448,150.242065 263.049927,150.044647 
	C263.049927,120.115128 263.049927,90.183723 263.049927,59.984547 
	C283.698151,59.984547 304.271332,59.984547 325.526917,59.984547 
	C323.869629,66.231026 322.528076,72.036354 320.655243,77.664909 
	C320.312836,78.693977 317.816742,79.530235 316.298157,79.558426 
	C307.009552,79.730835 297.716156,79.644669 288.146790,79.644669 
	C288.146790,84.838463 288.146790,89.586700 288.146790,94.834366 
	C297.970276,94.834366 307.717010,94.834366 317.791870,94.834366 
	C317.791870,101.699432 317.791870,108.071617 317.791870,114.895782 
	C307.849091,114.895782 298.092102,114.895782 287.994354,114.895782 
	C287.994354,120.385910 287.994354,125.432716 287.994354,130.918091 
	C300.200104,130.918091 312.300598,130.918091 325.116821,130.918091 
	C323.522522,137.031235 322.076904,142.574417 320.489685,148.504150 
z"/>
<path fill="#FCFEFF" opacity="1.000000" stroke="none" 
	d="
M213.008362,528.997559 
	C213.008224,507.347504 213.094589,486.196289 212.920990,465.047150 
	C212.892776,461.607910 213.729233,460.002289 217.238647,459.305115 
	C224.200027,457.922180 231.072250,456.090546 238.637878,454.287933 
	C238.637878,465.422638 238.637878,475.838837 238.637878,487.304962 
	C244.107635,485.074402 248.841705,483.314301 253.382202,481.148407 
	C254.290695,480.715027 254.846680,478.751099 254.901672,477.464508 
	C255.086411,473.142426 255.113327,468.801117 254.919785,464.479736 
	C254.795914,461.714050 255.569321,460.309845 258.481659,459.632172 
	C265.573120,457.981934 272.575806,455.950134 279.972168,453.976471 
	C279.972168,482.730988 279.972168,510.986115 279.972168,539.766724 
	C271.974335,541.645325 263.961334,543.527588 255.267181,545.569824 
	C255.267181,532.415833 255.267181,519.866394 255.267181,506.582916 
	C249.997787,508.265564 245.360641,509.495575 240.972687,511.323639 
	C239.874161,511.781311 239.038223,514.149536 239.001724,515.661926 
	C238.809387,523.633179 238.911621,531.611511 238.911621,539.906555 
	C230.251190,541.922729 221.886108,543.870117 213.008362,545.936890 
	C213.008362,540.109985 213.008362,534.803528 213.008362,528.997559 
z"/>
<path fill="#FBFEFF" opacity="1.000000" stroke="none" 
	d="
M183.468109,491.593628 
	C181.900848,491.863831 180.752670,492.014221 179.616684,492.163025 
	C176.946381,480.998932 172.460098,477.063904 163.588196,478.013611 
	C156.683838,478.752686 153.183578,482.581573 153.152603,489.509308 
	C153.122803,496.169830 153.140015,502.830536 153.146957,509.491180 
	C153.154205,516.438049 155.378860,519.846252 161.092285,521.695679 
	C166.855026,523.561035 173.491486,522.074890 175.947540,516.730835 
	C178.584320,510.993469 182.591385,510.907196 187.523651,511.140198 
	C192.009430,511.352142 196.510986,511.225067 201.005295,511.273865 
	C201.305817,511.277100 201.603928,511.503967 202.568710,511.899994 
	C202.568710,517.555237 202.653809,523.498901 202.477707,529.434937 
	C202.451035,530.334045 201.355682,531.390564 200.499908,532.037170 
	C198.644882,533.438782 196.441406,534.411926 194.702698,535.929443 
	C184.353027,544.962708 172.450821,548.725403 158.847458,546.589172 
	C155.837219,546.116516 152.643768,545.476746 150.040649,544.013672 
	C143.954254,540.592896 138.233047,536.529114 132.242554,532.927673 
	C129.848206,531.488159 128.843857,529.862854 128.866730,526.965515 
	C129.007370,509.149384 128.847275,491.330475 129.071732,473.516052 
	C129.095169,471.656464 130.800247,469.682465 132.069397,468.025208 
	C132.828247,467.034241 134.258270,466.558167 135.384659,465.847626 
	C153.699127,454.294312 153.700226,454.256775 175.249985,454.920898 
	C177.130127,454.978882 179.185150,455.616730 180.810532,456.575745 
	C186.973190,460.211823 193.117630,463.911407 198.980652,468.000519 
	C200.518066,469.072754 201.708145,471.584076 201.851654,473.523743 
	C202.180206,477.965332 203.398071,483.731049 201.187683,486.576385 
	C199.014130,489.374359 193.059219,489.248383 188.754379,490.370148 
	C187.145386,490.789429 185.510361,491.108856 183.468109,491.593628 
z"/>
<path fill="#F9FDFF" opacity="1.000000" stroke="none" 
	d="
M391.274841,545.482788 
	C390.384308,546.180176 389.673279,546.775757 388.960571,546.777771 
	C370.660706,546.828918 352.360626,546.818176 333.656128,546.818176 
	C333.656128,516.215454 333.656128,485.883636 333.656128,455.134430 
	C354.544525,455.134430 375.253723,455.134430 396.582733,455.134430 
	C394.640198,461.289734 392.945129,467.178009 390.820831,472.907135 
	C390.446014,473.917969 388.290863,474.796509 386.936249,474.828827 
	C379.282654,475.011475 371.622467,474.917419 363.964508,474.917633 
	C362.339508,474.917664 360.714508,474.917633 358.806305,474.917633 
	C358.806305,480.191528 358.806305,484.912292 358.806305,490.118958 
	C368.976318,490.118958 378.899292,490.118958 389.202576,490.118958 
	C389.202576,496.826202 389.202576,503.061432 389.202576,509.847412 
	C379.352295,509.847412 369.466339,509.847412 359.149261,509.847412 
	C359.149261,515.395508 359.149261,520.416443 359.149261,525.938843 
	C371.584839,525.938843 384.002167,525.938843 397.090332,525.938843 
	C395.088440,532.745422 393.270996,538.924927 391.274841,545.482788 
z"/>
<path fill="#F8FDFF" opacity="1.000000" stroke="none" 
	d="
M427.414642,541.330872 
	C421.144348,543.135254 415.260529,544.820496 408.814697,546.666748 
	C408.814697,515.894775 408.814697,485.715820 408.814697,455.067444 
	C429.656250,455.067444 450.363068,455.067444 471.790924,455.067444 
	C469.759064,461.421753 467.995209,467.447845 465.789886,473.307770 
	C465.442444,474.230927 463.103058,474.829773 461.673767,474.851196 
	C452.549774,474.987823 443.422699,474.920776 433.994873,474.920776 
	C433.994873,480.134186 433.994873,484.862885 433.994873,490.134460 
	C442.391663,490.134460 450.638123,490.134460 459.235260,490.134460 
	C459.235260,496.907776 459.235260,503.149902 459.235260,509.951935 
	C450.945953,509.951935 442.712463,509.951935 433.778412,509.951935 
	C433.778412,518.082764 433.460785,525.696960 433.892822,533.268372 
	C434.169556,538.117371 432.814819,540.841431 427.414642,541.330872 
z"/>
<path fill="#FAFDFF" opacity="1.000000" stroke="none" 
	d="
M294.259949,517.000000 
	C294.259857,499.342133 294.367584,482.183044 294.169983,465.027466 
	C294.129639,461.525848 295.147980,459.991394 298.574432,459.287231 
	C305.561768,457.851288 312.470581,456.033234 319.769531,454.287018 
	C319.863892,456.145599 320.000793,457.611328 320.003479,459.077362 
	C320.049744,484.564056 319.995758,510.051514 320.207428,535.536743 
	C320.237549,539.163391 319.002106,540.423401 315.660767,541.078369 
	C308.683624,542.446106 301.783966,544.209229 294.259857,545.946777 
	C294.259857,536.082947 294.259857,526.791443 294.259949,517.000000 
z"/>
<path fill="#F1F1F2" opacity="1.000000" stroke="none" 
	d="
M348.080383,222.008575 
	C347.209442,223.125961 346.495544,224.425201 345.443909,225.333389 
	C330.704468,238.062225 315.819946,250.625061 301.195221,263.483673 
	C295.623993,268.382080 295.889557,268.674438 299.730377,274.956726 
	C300.311401,275.907013 300.813629,276.905487 301.730255,278.566559 
	C295.334625,278.543610 296.350983,282.280212 296.878143,286.129974 
	C297.271790,289.004791 297.339996,292.051117 296.825745,294.889252 
	C296.259033,298.017059 293.928497,299.890381 290.577881,299.134399 
	C285.919525,298.083344 284.752319,300.912292 284.119843,304.459351 
	C281.505524,319.120605 283.273834,333.442139 288.770782,347.096375 
	C290.944000,352.494629 290.184387,355.330811 285.504456,358.478424 
	C263.597900,373.212280 240.461716,385.604797 216.214890,396.001343 
	C212.994446,397.382233 211.430573,396.565796 210.084656,393.551514 
	C207.709930,388.233215 204.812775,383.139038 202.609863,377.756439 
	C201.200348,374.312469 199.210602,373.568420 195.760101,374.035889 
	C192.508438,374.476410 189.085648,374.543121 185.854446,374.034882 
	C181.123154,373.290710 180.140076,371.022522 181.902328,366.512909 
	C182.023376,366.203125 182.146042,365.892914 182.288940,365.592926 
	C186.411926,356.936859 186.393982,356.992401 176.963943,353.865814 
	C173.725952,352.792236 170.604965,351.365753 167.430527,350.100494 
	C167.075851,349.403687 166.721191,348.706909 166.366531,348.010101 
	C170.611954,345.103180 174.857391,342.196228 179.717621,338.868347 
	C171.435669,334.427002 165.295135,331.134003 157.827225,327.129211 
	C162.818909,323.391724 166.565155,320.586761 170.299072,317.791046 
	C165.513733,314.426331 160.903091,311.184479 155.397095,307.313049 
	C161.321426,304.257721 165.857361,301.918427 171.740158,298.884521 
	C165.832397,293.537476 160.392197,288.613586 153.899719,282.737305 
	C159.604813,279.675293 164.295319,277.157837 169.360275,274.439362 
	C166.166885,270.056122 163.001907,265.711914 159.514359,260.924927 
	C164.262772,258.936462 168.471573,257.173950 173.284805,255.158325 
	C169.790894,250.091095 166.617264,245.488358 163.407349,240.833023 
	C166.038193,237.969193 169.826035,235.638184 170.535355,232.590622 
	C171.308990,229.266678 169.229691,225.278702 168.415100,221.673416 
	C207.061981,201.723129 335.739166,195.732071 363.233978,212.974838 
	C358.150543,216.347733 353.359955,219.526337 348.113220,222.045792 
	C348.404602,219.644577 349.152100,217.902512 349.936310,216.074921 
	C342.767303,214.464905 341.155548,215.656662 340.888489,222.597641 
	C343.310974,222.399231 345.695679,222.203888 348.080383,222.008575 
M196.806931,352.291290 
	C196.513565,354.487885 196.220215,356.684448 195.901398,359.071594 
	C197.453003,359.239960 199.196777,359.429169 201.213486,359.647980 
	C200.664597,361.904999 200.183197,363.884430 199.618576,366.206146 
	C201.689758,366.206146 203.302597,366.206146 205.142883,366.206146 
	C204.661072,368.555145 204.239563,370.610199 203.749283,373.000427 
	C205.733780,373.000427 207.429764,373.000427 209.263641,373.000427 
	C208.914246,375.379517 208.614960,377.417297 208.295547,379.592194 
	C210.404999,379.266907 212.012802,379.018982 213.993057,378.713623 
	C213.692825,381.029541 213.429871,383.057922 213.094727,385.643127 
	C215.523804,385.089508 217.550644,384.945679 219.304108,384.177643 
	C233.461151,377.976929 247.774078,372.077942 261.616302,365.231384 
	C271.076660,360.552155 270.959564,362.766205 267.180420,351.407745 
	C259.896790,329.516388 258.423645,307.365326 263.106049,284.876770 
	C269.732727,253.050552 284.863281,227.135254 315.067535,212.046265 
	C315.755493,211.702576 316.305908,211.083527 317.834778,209.863022 
	C274.713287,203.102875 233.727814,209.072525 192.832520,220.165070 
	C193.885834,222.037125 194.898560,223.837021 195.996109,225.787704 
	C194.119141,226.758118 192.413849,227.639786 190.497604,228.630508 
	C191.638062,230.440720 192.600006,231.967606 193.745529,233.785873 
	C191.995331,234.705231 190.303314,235.594025 188.380356,236.604141 
	C189.614822,238.391296 190.775528,240.071655 192.013214,241.863464 
	C189.898987,242.853622 188.173950,243.661499 186.104324,244.630753 
	C187.691803,246.806686 189.012985,248.617615 190.165588,250.197464 
	C188.296967,251.228043 186.656479,252.132782 184.926315,253.086990 
	C186.373703,254.903076 187.460541,256.266724 188.670456,257.784851 
	C186.786240,259.201019 185.246628,260.358215 183.584106,261.607788 
	C184.969208,263.206116 186.190948,264.615936 187.521103,266.150848 
	C185.407684,267.680756 183.755234,268.876984 181.842133,270.261841 
	C183.693542,271.747131 185.106476,272.880676 186.640640,274.111450 
	C184.699051,275.834473 183.237503,277.131470 181.605011,278.580200 
	C183.127487,279.909027 184.459381,281.071503 185.874969,282.307037 
	C184.165176,283.906494 182.639023,285.334167 180.992355,286.874573 
	C182.625519,288.291382 183.938553,289.430481 185.487335,290.774109 
	C183.783371,292.296997 182.352936,293.575439 180.608078,295.134888 
	C182.420044,296.362213 184.003891,297.434998 186.152649,298.890411 
	C184.213089,300.307861 182.473007,301.579529 180.458344,303.051849 
	C182.786697,304.851471 184.405457,306.102631 186.050430,307.374054 
	C184.600967,309.124817 183.379379,310.600311 182.091599,312.155792 
	C183.801590,313.184784 185.168625,314.007446 186.696915,314.927094 
	C185.332855,316.932709 184.169296,318.643494 182.966629,320.411804 
	C184.898865,321.182098 186.489029,321.816040 188.142059,322.475037 
	C186.804443,324.757690 185.694504,326.651794 184.457794,328.762238 
	C186.581451,329.484528 188.095505,329.999451 189.920074,330.619995 
	C188.738968,332.723053 187.717178,334.542480 186.661209,336.422699 
	C188.620773,337.096344 190.260406,337.659973 191.951706,338.241394 
	C190.927765,340.497620 190.059937,342.409851 189.118561,344.484131 
	C191.098557,344.855530 192.680313,345.152222 194.642395,345.520264 
	C193.699127,347.740540 192.878235,349.672760 191.918549,351.931702 
	C193.434341,352.044861 194.720154,352.140839 196.806931,352.291290 
M327.092468,231.494339 
	C332.537659,232.814331 334.409149,229.812424 335.120636,225.113998 
	C327.711212,224.184082 327.453918,224.370667 327.092468,231.494339 
M294.521790,238.556549 
	C289.637512,238.464935 290.893494,242.438446 289.804657,244.927338 
	C295.641510,246.883545 297.997833,244.248505 298.775848,238.877625 
	C297.548828,238.773987 296.425201,238.679092 294.521790,238.556549 
M311.976746,239.321762 
	C311.789734,240.084259 311.602722,240.846756 311.410248,241.631470 
	C319.077454,242.600845 319.077454,242.600845 320.442169,235.172470 
	C317.225433,235.279541 313.331604,233.371353 311.976746,239.321762 
M301.378479,233.654541 
	C308.407349,234.810883 309.055359,234.347595 310.141449,227.468872 
	C305.266632,226.063202 302.229492,227.723312 301.378479,233.654541 
M300.059937,252.949402 
	C307.264343,253.796677 307.502777,253.624924 308.633545,246.773880 
	C302.203369,245.734634 301.702301,246.044266 300.059937,252.949402 
M330.417603,212.935577 
	C332.149139,213.551193 334.562164,215.182098 335.471008,214.572067 
	C337.391571,213.282944 338.525940,210.822540 340.333801,208.365570 
	C333.022675,207.494339 333.022675,207.494339 330.417603,212.935577 
M278.251373,270.174133 
	C279.462158,268.165070 280.672974,266.155975 282.095398,263.795715 
	C274.406128,262.674774 274.397003,262.681335 272.444092,269.912109 
	C274.123901,269.996155 275.763062,270.078186 278.251373,270.174133 
M282.782257,276.711121 
	C288.466309,279.782776 290.420837,278.558350 291.427399,271.228516 
	C287.323975,270.474854 283.674072,270.476990 282.782257,276.711121 
M297.951782,262.349304 
	C298.339325,261.029144 298.726868,259.709015 299.140656,258.299408 
	C291.776367,257.572754 291.776367,257.572754 289.912933,265.568817 
	C292.858887,264.613281 295.219391,263.847595 297.951782,262.349304 
M281.658020,292.893860 
	C286.690826,293.326630 286.051880,289.109863 287.577942,285.839417 
	C285.455872,285.839417 283.417450,285.232666 282.280823,285.986206 
	C280.702484,287.032623 279.699554,289.043701 278.730896,290.796906 
	C278.602203,291.029816 280.119080,292.171936 281.658020,292.893860 
M282.292480,250.519592 
	C281.402893,252.397949 280.513275,254.276291 279.570251,256.267517 
	C286.944885,257.736694 288.040985,256.971710 288.461517,250.227493 
	C286.648468,250.227493 284.853363,250.227493 282.292480,250.519592 
M271.879364,278.048248 
	C270.422943,280.032135 268.966522,282.016052 267.158691,284.478607 
	C275.356140,285.410492 275.356140,285.410492 277.059113,278.373627 
	C275.591339,278.268036 274.158936,278.165009 271.879364,278.048248 
M318.897064,216.848160 
	C317.756775,218.837708 316.616455,220.827271 315.367249,223.006836 
	C322.655884,224.603210 323.235931,224.190491 324.711395,216.818787 
	C323.011017,216.818787 321.380188,216.818787 318.897064,216.848160 
M278.136871,320.042145 
	C278.698090,318.625610 279.259338,317.209045 279.837952,315.748627 
	C274.450500,314.164429 272.358063,316.090668 272.330170,321.268311 
	C274.217712,321.080109 275.966156,320.905762 278.136871,320.042145 
M279.878510,305.543488 
	C280.207062,304.221161 280.535614,302.898865 280.881805,301.505524 
	C276.063019,300.401306 273.932434,302.283112 273.407043,307.298035 
	C275.628296,306.924896 277.583466,306.596466 279.878510,305.543488 
M265.369781,297.809509 
	C264.465546,300.044342 265.415527,300.790863 267.597656,300.688446 
	C271.246124,300.517242 272.031860,298.186096 272.237305,293.590149 
	C269.472626,295.070465 267.599365,296.073456 265.369781,297.809509 
M265.067993,314.853271 
	C269.902985,314.536469 269.905914,314.533325 270.453369,309.108643 
	C264.478210,308.744110 263.829102,309.343811 265.067993,314.853271 
M271.159515,345.150848 
	C272.618286,343.581055 274.077087,342.011261 275.535858,340.441467 
	C273.211945,339.347778 271.354980,338.792236 270.417786,339.483551 
	C269.147095,340.420837 268.581116,342.313416 267.712891,343.796234 
	C268.573761,344.243988 269.434662,344.691711 271.159515,345.150848 
M276.319550,337.145721 
	C280.632965,337.606659 280.032043,334.076782 281.171387,331.388000 
	C279.538391,331.284607 278.101044,330.795563 277.053253,331.235107 
	C275.921631,331.709869 274.769318,332.915619 274.360382,334.064026 
	C274.077759,334.857727 275.041412,336.095184 276.319550,337.145721 
M266.651093,330.810211 
	C270.763092,331.172455 272.089935,328.851959 272.130310,325.222687 
	C266.029327,324.331726 265.008484,325.245819 266.651093,330.810211 
M278.397919,354.963409 
	C273.769623,353.966644 272.796234,356.846313 272.358704,360.429932 
	C277.199249,362.011292 278.977570,359.786530 278.397919,354.963409 
M282.422638,345.832031 
	C277.991089,345.007324 276.529236,347.375580 276.417389,351.318329 
	C281.196594,352.915436 282.910828,350.602661 282.422638,345.832031 
z"/>
<path fill="#F9F9F9" opacity="1.000000" stroke="none" 
	d="
M366.983826,319.629456 
	C362.748718,302.999573 369.404327,290.568054 382.434265,286.350922 
	C383.660797,285.953949 385.052032,285.282684 385.795746,284.304565 
	C390.511841,278.102203 396.747467,274.315613 403.969666,271.647034 
	C405.448669,271.100555 406.121368,268.321808 407.123932,266.548401 
	C408.374573,264.336060 409.142822,261.640045 410.895325,259.964447 
	C415.098846,255.945282 419.847412,252.503235 424.198303,248.628662 
	C427.168060,245.984039 429.683105,246.338409 431.515015,249.538025 
	C433.225739,252.526001 434.678711,255.748199 435.681030,259.039124 
	C438.868286,269.503723 441.420929,280.174011 444.919922,290.527863 
	C448.614777,301.461151 445.578247,303.581940 435.123566,303.444458 
	C432.825775,303.414246 430.529907,303.236176 427.895081,303.110016 
	C427.269318,310.982422 433.967072,306.903778 436.836365,309.608093 
	C436.836365,311.861816 436.836365,314.643555 436.836365,317.636902 
	C433.222778,320.621246 426.682495,314.495514 423.183105,321.880798 
	C425.700470,322.329590 427.699615,322.753845 429.718964,323.031189 
	C433.403198,323.537262 437.210083,323.762939 437.974945,328.601044 
	C438.824768,333.976440 436.787750,339.234161 432.852661,341.124054 
	C431.228638,341.904053 429.402618,342.585144 427.632355,342.687622 
	C414.634705,343.439941 401.601685,343.803253 388.990021,339.860413 
	C378.746094,336.657806 370.151917,331.310699 366.983826,319.629456 
M415.789276,276.767944 
	C421.494171,278.952454 427.261047,278.866058 433.208893,277.623077 
	C431.188477,272.046173 427.606537,269.651428 420.727539,269.378906 
	C416.770874,269.222107 413.087830,269.961517 411.453491,274.604187 
	C412.720490,275.239532 413.894012,275.828003 415.789276,276.767944 
z"/>
<path fill="#F9F9F9" opacity="1.000000" stroke="none" 
	d="
M291.076385,332.633148 
	C290.877655,324.609589 290.717804,317.002716 290.644775,309.395020 
	C290.615479,306.345459 292.154053,305.120239 295.305695,305.033691 
	C300.459839,304.892181 305.665588,304.633972 310.727234,303.735626 
	C314.975342,302.981659 317.697784,304.452209 319.074371,308.075226 
	C323.489258,319.694519 328.455292,331.196533 331.637665,343.161652 
	C334.000488,352.045410 334.517792,361.563934 334.752533,370.827698 
	C334.968964,379.367767 330.750854,381.784271 323.253113,377.700928 
	C318.668243,375.203949 314.407623,371.701233 310.805206,367.890320 
	C301.415771,357.957489 294.397522,346.525696 291.076385,332.633148 
z"/>
<path fill="#F8F8F8" opacity="1.000000" stroke="none" 
	d="
M377.116211,381.971588 
	C366.342682,377.896240 355.922852,373.990082 345.582672,369.883362 
	C344.126770,369.305145 342.186859,367.907074 341.949554,366.616608 
	C339.761108,354.715973 337.884888,342.757568 335.966431,330.808197 
	C335.816772,329.876038 336.033997,328.884979 336.079926,327.938080 
	C349.476440,325.543854 361.659088,326.494110 371.918854,336.628387 
	C375.254669,339.923431 379.711670,342.174805 383.879120,344.504120 
	C386.621216,346.036713 387.688293,347.757416 388.065735,351.015106 
	C389.187561,360.698303 390.956635,370.308197 392.553528,379.933350 
	C392.921509,382.151245 393.612335,384.315552 394.378113,387.406952 
	C388.141754,385.438080 382.818542,383.757477 377.116211,381.971588 
z"/>
<path fill="#F6F6F6" opacity="1.000000" stroke="none" 
	d="
M315.692078,282.191772 
	C322.137634,274.902985 327.718414,266.849640 335.184998,261.362366 
	C349.886780,250.557846 365.388947,240.768600 381.035065,231.348312 
	C391.940948,224.782089 396.428925,226.666748 403.389038,238.572937 
	C399.042847,238.316772 394.913422,238.073395 390.456207,237.810684 
	C389.552399,245.216125 388.713501,252.089600 387.806793,259.518707 
	C379.577789,258.477173 371.592133,257.466461 363.184753,256.402344 
	C362.193665,263.367279 361.243042,270.047913 360.207733,277.323669 
	C354.585266,276.152618 349.262360,275.109528 343.972412,273.919739 
	C340.298340,273.093323 337.799652,273.615479 337.571716,278.115906 
	C337.480804,279.910828 336.763702,281.672668 336.344543,283.452576 
	C334.119720,292.901031 334.107361,292.688446 324.523956,293.308777 
	C320.638489,293.560272 318.682465,292.442291 317.874023,288.678253 
	C317.424896,286.587280 316.429199,284.613708 315.692078,282.191772 
z"/>
<path fill="#F3F3F4" opacity="1.000000" stroke="none" 
	d="
M345.932678,246.935699 
	C333.782471,257.741882 321.926697,268.345367 309.735107,279.249176 
	C307.935577,276.208130 305.702789,272.434998 303.174194,268.161896 
	C307.979340,263.682159 312.479645,258.777924 317.675140,254.776245 
	C333.068695,242.919800 348.476379,231.047256 364.394897,219.919724 
	C373.894562,213.279175 382.796051,214.386856 393.082092,221.682236 
	C376.276733,228.149979 360.439178,235.950745 345.932678,246.935699 
z"/>
<path fill="#F0F0F1" opacity="1.000000" stroke="none" 
	d="
M344.076630,278.978027 
	C350.697754,280.196442 356.901062,281.357666 363.611481,282.613831 
	C364.782318,275.124054 365.902313,267.959473 367.103363,260.276306 
	C374.956085,261.123566 382.647827,261.953461 390.847321,262.838135 
	C391.818176,255.990906 392.767822,249.293365 393.804291,241.983444 
	C402.141449,242.505127 410.321716,243.016998 419.575378,243.596039 
	C417.916016,245.182404 417.104706,246.107880 416.149994,246.848541 
	C398.247681,260.737091 380.179596,274.417603 362.485138,288.565582 
	C355.298126,294.312103 347.665924,293.070160 339.094727,292.354126 
	C340.059937,287.352448 338.916107,282.262238 344.076630,278.978027 
z"/>
<path fill="#F8F8F8" opacity="1.000000" stroke="none" 
	d="
M327.973358,299.165405 
	C329.180359,298.082764 330.240540,296.877686 331.333710,296.846954 
	C337.968964,296.660400 344.622742,296.540192 351.242828,296.901459 
	C352.584839,296.974670 353.809204,299.203278 355.087799,300.438202 
	C353.790497,301.656189 352.549469,303.847534 351.186279,303.926361 
	C344.732910,304.299530 338.245789,304.134033 331.771423,304.079926 
	C328.880524,304.055786 327.563416,302.472900 327.973358,299.165405 
z"/>
<path fill="#ECECEC" opacity="1.000000" stroke="none" 
	d="
M334.987457,314.178925 
	C333.552917,312.724274 332.118378,311.269623 330.683838,309.814972 
	C332.441223,308.703491 334.103638,306.880371 335.976044,306.630432 
	C339.735199,306.128601 343.640015,306.203674 347.421021,306.619659 
	C349.053223,306.799194 350.527283,308.416382 352.073181,309.380554 
	C350.972443,310.929626 349.871704,312.478729 347.940186,314.004822 
	C343.068726,314.047485 339.028076,314.113190 334.987457,314.178925 
z"/>
<path fill="#E5E5E4" opacity="1.000000" stroke="none" 
	d="
M406.839478,235.226074 
	C404.080627,232.160004 401.558167,229.368332 399.035706,226.576660 
	C407.687164,228.633591 414.680542,233.237534 420.866302,239.317413 
	C415.704773,239.775925 410.644135,240.263702 406.839478,235.226074 
z"/>
<path fill="#F6F6F6" opacity="1.000000" stroke="none" 
	d="
M347.031250,315.895996 
	C347.760498,317.534668 349.419830,319.530731 348.964935,320.714325 
	C348.482727,321.969086 346.068695,322.801483 344.357574,323.177856 
	C342.480835,323.590576 340.398285,323.527985 338.489471,323.193237 
	C336.872253,322.909668 334.442566,322.273041 334.060577,321.194641 
	C333.584320,319.850159 334.839722,317.892273 336.111267,316.070068 
	C340.260498,315.925934 343.645874,315.910950 347.031250,315.895996 
z"/>
<path fill="#ECECEC" opacity="1.000000" stroke="none" 
	d="
M313.700012,293.682373 
	C313.574463,298.633972 311.421265,299.732483 304.113892,298.737091 
	C303.757660,295.109070 303.391632,291.381226 303.025604,287.653381 
	C303.408142,287.252045 303.790680,286.850708 304.173248,286.449371 
	C307.308685,288.735901 310.444122,291.022430 313.700012,293.682373 
z"/>
<path fill="#313131" opacity="1.000000" stroke="none" 
	d="
M347.116943,315.662415 
	C343.645874,315.910950 340.260498,315.925934 336.415588,315.896912 
	C335.704590,315.440399 335.453125,315.027832 335.094574,314.397095 
	C339.028076,314.113190 343.068726,314.047485 347.563599,314.082458 
	C347.746155,314.598389 347.474396,315.013611 347.116943,315.662415 
z"/>
<path fill="#ED1F26" opacity="1.000000" stroke="none" 
	d="
M364.909302,125.759117 
	C364.909302,110.340103 364.909302,95.394386 364.909302,80.402359 
	C375.846252,80.402359 386.483765,79.649574 396.957031,80.637474 
	C405.534363,81.446541 410.916290,88.947144 412.508911,99.092186 
	C415.259888,116.615768 404.263550,129.651794 386.687256,129.691193 
	C380.530212,129.704987 374.370514,129.586716 368.217285,129.740479 
	C365.527496,129.807693 364.581879,128.752167 364.909302,125.759117 
z"/>
<path fill="#ED2129" opacity="1.000000" stroke="none" 
	d="
M189.719818,85.058060 
	C189.719757,82.620651 189.719757,80.669289 189.719757,78.319572 
	C198.283737,78.319572 206.379242,78.016075 214.436508,78.439644 
	C218.880005,78.673241 221.741806,82.921333 221.435364,87.264305 
	C221.142517,91.414330 218.058136,94.844887 213.731033,94.977158 
	C205.967010,95.214493 198.190521,95.044113 189.719894,95.044113 
	C189.719894,91.706078 189.719894,88.625092 189.719818,85.058060 
z"/>
<path fill="#ED1D25" opacity="1.000000" stroke="none" 
	d="
M210.992493,109.007614 
	C210.844879,108.821136 210.670090,108.653252 210.495300,108.485367 
	C210.719772,108.565163 210.944244,108.644958 211.038544,108.892014 
	C210.908386,109.059258 210.965317,109.026199 210.992493,109.007614 
z"/>
<path fill="#0B0B0B" opacity="1.000000" stroke="none" 
	d="
M196.406448,352.264038 
	C194.720154,352.140839 193.434341,352.044861 191.918549,351.931702 
	C192.878235,349.672760 193.699127,347.740540 194.642395,345.520264 
	C192.680313,345.152222 191.098557,344.855530 189.118561,344.484131 
	C190.059937,342.409851 190.927765,340.497620 191.951706,338.241394 
	C190.260406,337.659973 188.620773,337.096344 186.661209,336.422699 
	C187.717178,334.542480 188.738968,332.723053 189.920074,330.619995 
	C188.095505,329.999451 186.581451,329.484528 184.457794,328.762238 
	C185.694504,326.651794 186.804443,324.757690 188.142059,322.475037 
	C186.489029,321.816040 184.898865,321.182098 182.966629,320.411804 
	C184.169296,318.643494 185.332855,316.932709 186.696915,314.927094 
	C185.168625,314.007446 183.801590,313.184784 182.091599,312.155792 
	C183.379379,310.600311 184.600967,309.124817 186.050430,307.374054 
	C184.405457,306.102631 182.786697,304.851471 180.458344,303.051849 
	C182.473007,301.579529 184.213089,300.307861 186.152649,298.890411 
	C184.003891,297.434998 182.420044,296.362213 180.608078,295.134888 
	C182.352936,293.575439 183.783371,292.296997 185.487335,290.774109 
	C183.938553,289.430481 182.625519,288.291382 180.992355,286.874573 
	C182.639023,285.334167 184.165176,283.906494 185.874969,282.307037 
	C184.459381,281.071503 183.127487,279.909027 181.605011,278.580200 
	C183.237503,277.131470 184.699051,275.834473 186.640640,274.111450 
	C185.106476,272.880676 183.693542,271.747131 181.842133,270.261841 
	C183.755234,268.876984 185.407684,267.680756 187.521103,266.150848 
	C186.190948,264.615936 184.969208,263.206116 183.584106,261.607788 
	C185.246628,260.358215 186.786240,259.201019 188.670456,257.784851 
	C187.460541,256.266724 186.373703,254.903076 184.926315,253.086990 
	C186.656479,252.132782 188.296967,251.228043 190.165588,250.197464 
	C189.012985,248.617615 187.691803,246.806686 186.104324,244.630753 
	C188.173950,243.661499 189.898987,242.853622 192.013214,241.863464 
	C190.775528,240.071655 189.614822,238.391296 188.380356,236.604141 
	C190.303314,235.594025 191.995331,234.705231 193.745529,233.785873 
	C192.600006,231.967606 191.638062,230.440720 190.497604,228.630508 
	C192.413849,227.639786 194.119141,226.758118 195.996109,225.787704 
	C194.898560,223.837021 193.885834,222.037125 192.832520,220.165070 
	C233.727814,209.072525 274.713287,203.102875 317.834778,209.863022 
	C316.305908,211.083527 315.755493,211.702576 315.067535,212.046265 
	C284.863281,227.135254 269.732727,253.050552 263.106049,284.876770 
	C258.423645,307.365326 259.896790,329.516388 267.180420,351.407745 
	C270.959564,362.766205 271.076660,360.552155 261.616302,365.231384 
	C247.774078,372.077942 233.461151,377.976929 219.304108,384.177643 
	C217.550644,384.945679 215.523804,385.089508 213.094727,385.643127 
	C213.429871,383.057922 213.692825,381.029541 213.993057,378.713623 
	C212.012802,379.018982 210.404999,379.266907 208.295547,379.592194 
	C208.614960,377.417297 208.914246,375.379517 209.263641,373.000427 
	C207.429764,373.000427 205.733780,373.000427 203.749283,373.000427 
	C204.239563,370.610199 204.661072,368.555145 205.142883,366.206146 
	C203.302597,366.206146 201.689758,366.206146 199.618576,366.206146 
	C200.183197,363.884430 200.664597,361.904999 201.213486,359.647980 
	C199.196777,359.429169 197.453003,359.239960 195.901398,359.071594 
	C196.220215,356.684448 196.513565,354.487885 196.406448,352.264038 
M293.722443,220.326752 
	C296.635681,218.052612 299.548920,215.778458 303.009552,213.077011 
	C267.719177,208.850693 234.087875,213.097748 200.896683,222.373398 
	C201.668030,222.921936 202.420547,222.964676 203.167023,222.915756 
	C230.406631,221.130371 257.622070,219.804749 284.817871,223.926880 
	C287.376648,224.314743 290.358917,221.908340 293.722443,220.326752 
M201.308701,251.886337 
	C220.547333,249.597153 239.795120,248.982422 259.067169,251.508835 
	C266.813751,252.524353 270.390961,249.783508 272.203491,241.463120 
	C244.448471,239.633347 217.432037,243.351669 191.038132,252.349625 
	C194.147064,252.213181 197.255981,252.076721 201.308701,251.886337 
M282.318939,230.288147 
	C284.087250,227.897598 282.321686,227.970215 280.684937,227.933319 
	C275.861206,227.824585 271.036652,227.740005 266.214203,227.588577 
	C244.267899,226.899445 222.952454,230.712799 200.855225,236.498459 
	C207.759155,236.498459 213.600800,236.405975 219.438568,236.516617 
	C234.220688,236.796722 249.061478,236.483734 263.757629,237.780807 
	C271.538269,238.467514 277.746521,238.387024 282.318939,230.288147 
M263.220245,259.605713 
	C264.890686,256.085632 261.989532,257.024048 260.532715,257.045227 
	C238.781296,257.361267 217.384506,260.147369 196.531311,266.529144 
	C194.551956,267.134888 192.662888,268.035645 190.731903,268.799438 
	C192.150513,269.534515 193.290619,269.470398 194.425827,269.357391 
	C213.802185,267.427887 233.160202,264.452850 252.681625,267.092072 
	C258.476044,267.875427 261.829285,266.119232 263.220245,259.605713 
M196.779083,283.027740 
	C197.611694,283.023438 198.468506,283.147522 199.273361,282.995941 
	C215.064468,280.022125 230.970413,279.534973 246.967041,280.617310 
	C250.097763,280.829132 253.255081,280.647797 256.744537,280.647797 
	C257.463226,277.708710 258.179840,274.778046 259.028076,271.309204 
	C236.789902,270.422119 216.276337,275.187714 195.946899,281.101624 
	C195.766922,281.153961 195.919601,282.349823 196.779083,283.027740 
M212.598587,292.033234 
	C207.153564,293.697052 201.708542,295.360840 196.263519,297.024658 
	C196.334259,297.195343 196.404984,297.366058 196.475723,297.536774 
	C215.782623,296.445160 235.089539,295.353546 254.788315,294.239777 
	C255.048889,292.036987 255.350967,289.483246 255.709045,286.456238 
	C241.024292,286.296539 227.129456,288.352631 212.598587,292.033234 
M254.118820,305.202850 
	C254.118820,303.270355 254.118820,301.337860 254.118820,298.879669 
	C234.928543,300.264313 216.341446,302.689636 198.106827,309.433807 
	C198.896835,310.108276 199.146011,310.501617 199.373398,310.489410 
	C216.584152,309.564392 233.794601,308.631256 250.998825,307.594696 
	C252.049622,307.531433 253.049896,306.629730 254.118820,305.202850 
M214.545151,317.983673 
	C210.564011,319.465302 206.582870,320.946930 202.601715,322.428558 
	C202.788025,322.935822 202.974335,323.443085 203.160645,323.950348 
	C204.221283,323.797333 205.278015,323.605896 206.343170,323.497101 
	C220.164322,322.085602 233.966553,320.408081 247.817505,319.404083 
	C254.410263,318.926208 255.535278,317.968781 253.309265,311.151428 
	C240.318573,311.294403 227.733429,314.032593 214.545151,317.983673 
M240.133316,324.575714 
	C229.923080,327.379639 219.712845,330.183563 209.502625,332.987457 
	C209.631439,333.436615 209.760254,333.885773 209.889084,334.334930 
	C224.846146,332.811493 239.803207,331.288055 254.887421,329.751678 
	C254.887421,327.877991 254.887421,325.775452 254.887421,322.753296 
	C250.036911,323.310425 245.499329,323.831573 240.133316,324.575714 
M242.364014,336.831757 
	C232.144501,339.199554 221.946701,341.625549 212.916977,347.248474 
	C213.580185,347.915680 214.068665,348.114716 214.516235,348.046265 
	C227.082764,346.123352 239.635193,344.105682 252.212952,342.260345 
	C257.437317,341.493866 258.094360,340.456970 255.750122,334.629089 
	C251.646347,335.290009 247.419815,335.970673 242.364014,336.831757 
M239.787109,349.241882 
	C233.178268,352.132629 226.569443,355.023346 219.960602,357.914093 
	C220.111298,358.373108 220.262009,358.832123 220.412704,359.291138 
	C233.272537,356.263916 246.132370,353.236664 259.277679,350.142242 
	C258.959808,348.390930 258.588257,346.343781 258.100311,343.655334 
	C251.884171,345.548828 246.208954,347.277527 239.787109,349.241882 
M239.190887,361.678375 
	C234.417999,363.843048 229.645096,366.007721 224.872208,368.172394 
	C225.029739,368.612457 225.187286,369.052490 225.344833,369.492554 
	C237.611938,366.632294 249.879028,363.772034 262.513489,360.826111 
	C262.023407,359.066040 261.477997,357.107086 260.770325,354.565460 
	C253.396454,356.958130 246.642212,359.149719 239.190887,361.678375 
z"/>
<path fill="#1D1D1D" opacity="1.000000" stroke="none" 
	d="
M348.045227,222.002533 
	C345.695679,222.203888 343.310974,222.399231 340.888489,222.597641 
	C341.155548,215.656662 342.767303,214.464905 349.936310,216.074921 
	C349.152100,217.902512 348.404602,219.644577 347.844910,221.725189 
	C348.032684,222.063736 348.010071,221.996490 348.045227,222.002533 
z"/>
<path fill="#181818" opacity="1.000000" stroke="none" 
	d="
M326.718506,231.371002 
	C327.453918,224.370667 327.711212,224.184082 335.120636,225.113998 
	C334.409149,229.812424 332.537659,232.814331 326.718506,231.371002 
z"/>
<path fill="#141414" opacity="1.000000" stroke="none" 
	d="
M294.911682,238.570374 
	C296.425201,238.679092 297.548828,238.773987 298.775848,238.877625 
	C297.997833,244.248505 295.641510,246.883545 289.804657,244.927338 
	C290.893494,242.438446 289.637512,238.464935 294.911682,238.570374 
z"/>
<path fill="#171717" opacity="1.000000" stroke="none" 
	d="
M312.101990,238.949081 
	C313.331604,233.371353 317.225433,235.279541 320.442169,235.172470 
	C319.077454,242.600845 319.077454,242.600845 311.410248,241.631470 
	C311.602722,240.846756 311.789734,240.084259 312.101990,238.949081 
z"/>
<path fill="#1D1D1D" opacity="1.000000" stroke="none" 
	d="
M301.365662,233.255310 
	C302.229492,227.723312 305.266632,226.063202 310.141449,227.468872 
	C309.055359,234.347595 308.407349,234.810883 301.365662,233.255310 
z"/>
<path fill="#141414" opacity="1.000000" stroke="none" 
	d="
M299.942688,252.583130 
	C301.702301,246.044266 302.203369,245.734634 308.633545,246.773880 
	C307.502777,253.624924 307.264343,253.796677 299.942688,252.583130 
z"/>
<path fill="#181818" opacity="1.000000" stroke="none" 
	d="
M330.601257,212.577957 
	C333.022675,207.494339 333.022675,207.494339 340.333801,208.365570 
	C338.525940,210.822540 337.391571,213.282944 335.471008,214.572067 
	C334.562164,215.182098 332.149139,213.551193 330.601257,212.577957 
z"/>
<path fill="#2E3130" opacity="1.000000" stroke="none" 
	d="
M277.826813,270.167175 
	C275.763062,270.078186 274.123901,269.996155 272.444092,269.912109 
	C274.397003,262.681335 274.406128,262.674774 282.095398,263.795715 
	C280.672974,266.155975 279.462158,268.165070 277.826813,270.167175 
z"/>
<path fill="#313131" opacity="1.000000" stroke="none" 
	d="
M282.841980,276.284363 
	C283.674072,270.476990 287.323975,270.474854 291.427399,271.228516 
	C290.420837,278.558350 288.466309,279.782776 282.841980,276.284363 
z"/>
<path fill="#2E3130" opacity="1.000000" stroke="none" 
	d="
M297.765869,262.715637 
	C295.219391,263.847595 292.858887,264.613281 289.912933,265.568817 
	C291.776367,257.572754 291.776367,257.572754 299.140656,258.299408 
	C298.726868,259.709015 298.339325,261.029144 297.765869,262.715637 
z"/>
<path fill="#171717" opacity="1.000000" stroke="none" 
	d="
M281.265930,292.893433 
	C280.119080,292.171936 278.602203,291.029816 278.730896,290.796906 
	C279.699554,289.043701 280.702484,287.032623 282.280823,285.986206 
	C283.417450,285.232666 285.455872,285.839417 287.577942,285.839417 
	C286.051880,289.109863 286.690826,293.326630 281.265930,292.893433 
z"/>
<path fill="#343736" opacity="1.000000" stroke="none" 
	d="
M282.675354,250.373535 
	C284.853363,250.227493 286.648468,250.227493 288.461517,250.227493 
	C288.040985,256.971710 286.944885,257.736694 279.570251,256.267517 
	C280.513275,254.276291 281.402893,252.397949 282.675354,250.373535 
z"/>
<path fill="#313131" opacity="1.000000" stroke="none" 
	d="
M272.302979,278.055115 
	C274.158936,278.165009 275.591339,278.268036 277.059113,278.373627 
	C275.356140,285.410492 275.356140,285.410492 267.158691,284.478607 
	C268.966522,282.016052 270.422943,280.032135 272.302979,278.055115 
z"/>
<path fill="#141414" opacity="1.000000" stroke="none" 
	d="
M319.323181,216.833466 
	C321.380188,216.818787 323.011017,216.818787 324.711395,216.818787 
	C323.235931,224.190491 322.655884,224.603210 315.367249,223.006836 
	C316.616455,220.827271 317.756775,218.837708 319.323181,216.833466 
z"/>
<path fill="#343736" opacity="1.000000" stroke="none" 
	d="
M277.925751,320.386780 
	C275.966156,320.905762 274.217712,321.080109 272.330170,321.268311 
	C272.358063,316.090668 274.450500,314.164429 279.837952,315.748627 
	C279.259338,317.209045 278.698090,318.625610 277.925751,320.386780 
z"/>
<path fill="#343736" opacity="1.000000" stroke="none" 
	d="
M279.708557,305.905762 
	C277.583466,306.596466 275.628296,306.924896 273.407043,307.298035 
	C273.932434,302.283112 276.063019,300.401306 280.881805,301.505524 
	C280.535614,302.898865 280.207062,304.221161 279.708557,305.905762 
z"/>
<path fill="#343736" opacity="1.000000" stroke="none" 
	d="
M265.547943,297.442993 
	C267.599365,296.073456 269.472626,295.070465 272.237305,293.590149 
	C272.031860,298.186096 271.246124,300.517242 267.597656,300.688446 
	C265.415527,300.790863 264.465546,300.044342 265.547943,297.442993 
z"/>
<path fill="#343736" opacity="1.000000" stroke="none" 
	d="
M264.694855,314.813629 
	C263.829102,309.343811 264.478210,308.744110 270.453369,309.108643 
	C269.905914,314.533325 269.902985,314.536469 264.694855,314.813629 
z"/>
<path fill="#393A39" opacity="1.000000" stroke="none" 
	d="
M270.727539,345.145142 
	C269.434662,344.691711 268.573761,344.243988 267.712891,343.796234 
	C268.581116,342.313416 269.147095,340.420837 270.417786,339.483551 
	C271.354980,338.792236 273.211945,339.347778 275.535858,340.441467 
	C274.077087,342.011261 272.618286,343.581055 270.727539,345.145142 
z"/>
<path fill="#393A39" opacity="1.000000" stroke="none" 
	d="
M275.883850,337.140045 
	C275.041412,336.095184 274.077759,334.857727 274.360382,334.064026 
	C274.769318,332.915619 275.921631,331.709869 277.053253,331.235107 
	C278.101044,330.795563 279.538391,331.284607 281.171387,331.388000 
	C280.032043,334.076782 280.632965,337.606659 275.883850,337.140045 
z"/>
<path fill="#343736" opacity="1.000000" stroke="none" 
	d="
M266.249329,330.784973 
	C265.008484,325.245819 266.029327,324.331726 272.130310,325.222687 
	C272.089935,328.851959 270.763092,331.172455 266.249329,330.784973 
z"/>
<path fill="#343736" opacity="1.000000" stroke="none" 
	d="
M278.758453,355.197388 
	C278.977570,359.786530 277.199249,362.011292 272.358704,360.429932 
	C272.796234,356.846313 273.769623,353.966644 278.758453,355.197388 
z"/>
<path fill="#393A39" opacity="1.000000" stroke="none" 
	d="
M282.781586,346.077576 
	C282.910828,350.602661 281.196594,352.915436 276.417389,351.318329 
	C276.529236,347.375580 277.991089,345.007324 282.781586,346.077576 
z"/>
<path fill="#0C0C0C" opacity="1.000000" stroke="none" 
	d="
M415.428406,276.592224 
	C413.894012,275.828003 412.720490,275.239532 411.453491,274.604187 
	C413.087830,269.961517 416.770874,269.222107 420.727539,269.378906 
	C427.606537,269.651428 431.188477,272.046173 433.208893,277.623077 
	C427.261047,278.866058 421.494171,278.952454 415.428406,276.592224 
z"/>
<path fill="#EFEFF0" opacity="1.000000" stroke="none" 
	d="
M293.433502,220.563004 
	C290.358917,221.908340 287.376648,224.314743 284.817871,223.926880 
	C257.622070,219.804749 230.406631,221.130371 203.167023,222.915756 
	C202.420547,222.964676 201.668030,222.921936 200.896683,222.373398 
	C234.087875,213.097748 267.719177,208.850693 303.009552,213.077011 
	C299.548920,215.778458 296.635681,218.052612 293.433502,220.563004 
z"/>
<path fill="#ECECED" opacity="1.000000" stroke="none" 
	d="
M200.836807,251.913300 
	C197.255981,252.076721 194.147064,252.213181 191.038132,252.349625 
	C217.432037,243.351669 244.448471,239.633347 272.203491,241.463120 
	C270.390961,249.783508 266.813751,252.524353 259.067169,251.508835 
	C239.795120,248.982422 220.547333,249.597153 200.836807,251.913300 
z"/>
<path fill="#F1F1F2" opacity="1.000000" stroke="none" 
	d="
M282.088287,230.609894 
	C277.746521,238.387024 271.538269,238.467514 263.757629,237.780807 
	C249.061478,236.483734 234.220688,236.796722 219.438568,236.516617 
	C213.600800,236.405975 207.759155,236.498459 200.855225,236.498459 
	C222.952454,230.712799 244.267899,226.899445 266.214203,227.588577 
	C271.036652,227.740005 275.861206,227.824585 280.684937,227.933319 
	C282.321686,227.970215 284.087250,227.897598 282.088287,230.609894 
z"/>
<path fill="#EFEEED" opacity="1.000000" stroke="none" 
	d="
M263.087616,259.983093 
	C261.829285,266.119232 258.476044,267.875427 252.681625,267.092072 
	C233.160202,264.452850 213.802185,267.427887 194.425827,269.357391 
	C193.290619,269.470398 192.150513,269.534515 190.731903,268.799438 
	C192.662888,268.035645 194.551956,267.134888 196.531311,266.529144 
	C217.384506,260.147369 238.781296,257.361267 260.532715,257.045227 
	C261.989532,257.024048 264.890686,256.085632 263.087616,259.983093 
z"/>
<path fill="#ECECED" opacity="1.000000" stroke="none" 
	d="
M196.348022,283.019775 
	C195.919601,282.349823 195.766922,281.153961 195.946899,281.101624 
	C216.276337,275.187714 236.789902,270.422119 259.028076,271.309204 
	C258.179840,274.778046 257.463226,277.708710 256.744537,280.647797 
	C253.255081,280.647797 250.097763,280.829132 246.967041,280.617310 
	C230.970413,279.534973 215.064468,280.022125 199.273361,282.995941 
	C198.468506,283.147522 197.611694,283.023438 196.348022,283.019775 
z"/>
<path fill="#EDEDEE" opacity="1.000000" stroke="none" 
	d="
M213.003815,291.952240 
	C227.129456,288.352631 241.024292,286.296539 255.709045,286.456238 
	C255.350967,289.483246 255.048889,292.036987 254.788315,294.239777 
	C235.089539,295.353546 215.782623,296.445160 196.475723,297.536774 
	C196.404984,297.366058 196.334259,297.195343 196.263519,297.024658 
	C201.708542,295.360840 207.153564,293.697052 213.003815,291.952240 
z"/>
<path fill="#ECEBEA" opacity="1.000000" stroke="none" 
	d="
M254.096252,305.660492 
	C253.049896,306.629730 252.049622,307.531433 250.998825,307.594696 
	C233.794601,308.631256 216.584152,309.564392 199.373398,310.489410 
	C199.146011,310.501617 198.896835,310.108276 198.106827,309.433807 
	C216.341446,302.689636 234.928543,300.264313 254.118820,298.879669 
	C254.118820,301.337860 254.118820,303.270355 254.096252,305.660492 
z"/>
<path fill="#EEEDEC" opacity="1.000000" stroke="none" 
	d="
M214.932434,317.884827 
	C227.733429,314.032593 240.318573,311.294403 253.309265,311.151428 
	C255.535278,317.968781 254.410263,318.926208 247.817505,319.404083 
	C233.966553,320.408081 220.164322,322.085602 206.343170,323.497101 
	C205.278015,323.605896 204.221283,323.797333 203.160645,323.950348 
	C202.974335,323.443085 202.788025,322.935822 202.601715,322.428558 
	C206.582870,320.946930 210.564011,319.465302 214.932434,317.884827 
z"/>
<path fill="#E8E8E8" opacity="1.000000" stroke="none" 
	d="
M240.547546,324.464233 
	C245.499329,323.831573 250.036911,323.310425 254.887421,322.753296 
	C254.887421,325.775452 254.887421,327.877991 254.887421,329.751678 
	C239.803207,331.288055 224.846146,332.811493 209.889084,334.334930 
	C209.760254,333.885773 209.631439,333.436615 209.502625,332.987457 
	C219.712845,330.183563 229.923080,327.379639 240.547546,324.464233 
z"/>
<path fill="#EAE9E9" opacity="1.000000" stroke="none" 
	d="
M242.778641,336.741547 
	C247.419815,335.970673 251.646347,335.290009 255.750122,334.629089 
	C258.094360,340.456970 257.437317,341.493866 252.212952,342.260345 
	C239.635193,344.105682 227.082764,346.123352 214.516235,348.046265 
	C214.068665,348.114716 213.580185,347.915680 212.916977,347.248474 
	C221.946701,341.625549 232.144501,339.199554 242.778641,336.741547 
z"/>
<path fill="#E8E8E7" opacity="1.000000" stroke="none" 
	d="
M240.160431,349.124084 
	C246.208954,347.277527 251.884171,345.548828 258.100311,343.655334 
	C258.588257,346.343781 258.959808,348.390930 259.277679,350.142242 
	C246.132370,353.236664 233.272537,356.263916 220.412704,359.291138 
	C220.262009,358.832123 220.111298,358.373108 219.960602,357.914093 
	C226.569443,355.023346 233.178268,352.132629 240.160431,349.124084 
z"/>
<path fill="#E8E7E6" opacity="1.000000" stroke="none" 
	d="
M239.539429,361.509857 
	C246.642212,359.149719 253.396454,356.958130 260.770325,354.565460 
	C261.477997,357.107086 262.023407,359.066040 262.513489,360.826111 
	C249.879028,363.772034 237.611938,366.632294 225.344833,369.492554 
	C225.187286,369.052490 225.029739,368.612457 224.872208,368.172394 
	C229.645096,366.007721 234.417999,363.843048 239.539429,361.509857 
z"/>
</svg>